<?xml version="1.0" encoding="UTF-8"?>
<!DOCTYPE svg PUBLIC "-//W3C//DTD SVG 1.1//EN" "http://www.w3.org/Graphics/SVG/1.1/DTD/svg11.dtd">
<!-- Creator: CorelDRAW 2019 (64 Bit) -->
<svg xmlns="http://www.w3.org/2000/svg" xml:space="preserve" width="512px" height="512px" version="1.1" style="shape-rendering:geometricPrecision; text-rendering:geometricPrecision; image-rendering:optimizeQuality; fill-rule:evenodd; clip-rule:evenodd"
viewBox="0 0 579.34 579.34"
 xmlns:xlink="http://www.w3.org/1999/xlink">
 <defs>
  <style type="text/css">
   <![CDATA[
    .str0 {stroke:#00ffbf;stroke-width:32.07;stroke-miterlimit:22.9256}
    .fil0 {fill:none}
    .fil1 {fill:#00ffbf;fill-rule:nonzero}
   ]]>
  </style>
 </defs>
 <g id="Camada_x0020_1">
  <metadata id="CorelCorpID_0Corel-Layer"/>
  <path class="fil0 str0" d="M289.67 16.03c151.13,0 273.64,122.51 273.64,273.64 0,151.13 -122.51,273.64 -273.64,273.64 -151.13,0 -273.64,-122.51 -273.64,-273.64 0,-151.13 122.51,-273.64 273.64,-273.64z"/>
  <path class="fil1" d="M308.59 123.46l0 41.14c15.18,1.96 27.85,8.26 38.01,18.91 10.17,10.66 15.61,25.53 16.35,44.63l-38.2 0c-0.74,-9.3 -3.68,-16.77 -8.82,-22.4 -5.14,-5.63 -12.98,-8.45 -23.51,-8.45 -5.14,0 -9.67,1.04 -13.59,3.12 -3.92,2.08 -7.16,4.78 -9.73,8.08 -2.57,3.31 -4.47,7.04 -5.69,11.2 -1.23,4.17 -1.84,8.21 -1.84,12.13 0,6.12 1.04,11.08 3.12,14.87 2.08,3.8 5.02,6.98 8.82,9.55 3.79,2.58 8.38,4.72 13.77,6.43 5.39,1.72 11.39,3.43 18,5.14 3.67,0.98 8.94,2.64 15.79,4.96 6.86,2.33 13.66,6.13 20.39,11.39 6.73,5.27 12.61,12.43 17.63,21.49 5.02,9.06 7.53,20.69 7.53,34.89 0,6.37 -0.79,13.47 -2.39,21.31 -1.59,7.83 -4.59,15.36 -8.99,22.59 -4.41,7.22 -10.35,13.65 -17.82,19.28 -7.47,5.63 -17.08,9.43 -28.83,11.39l0 40.77 -34.9 0 0 -40.77c-8.08,-1.96 -15.67,-4.84 -22.77,-8.63 -7.1,-3.8 -13.35,-8.7 -18.74,-14.7 -5.38,-5.99 -9.79,-13.16 -13.22,-21.48 -3.43,-8.33 -5.51,-18 -6.24,-29.02l38.2 0c0.73,8.08 2.51,14.81 5.32,20.2 2.82,5.39 6.13,9.61 9.92,12.67 3.8,3.06 7.96,5.21 12.49,6.43 4.53,1.23 8.88,1.84 13.04,1.84 6.37,0 11.88,-1.17 16.53,-3.49 4.65,-2.33 8.45,-5.39 11.38,-9.18 2.94,-3.8 5.15,-8.21 6.62,-13.23 1.47,-5.02 2.2,-10.34 2.2,-15.98 0,-7.59 -1.65,-13.83 -4.96,-18.73 -3.3,-4.9 -7.34,-8.94 -12.12,-12.12 -4.77,-3.18 -9.86,-5.57 -15.24,-7.16 -5.39,-1.6 -10.29,-3 -14.7,-4.23 -4.16,-1.22 -9.49,-2.94 -15.97,-5.14 -6.49,-2.2 -12.86,-5.69 -19.1,-10.47 -6.25,-4.77 -11.64,-11.2 -16.17,-19.28 -4.53,-8.08 -6.79,-18.61 -6.79,-31.59 0,-5.39 0.73,-11.45 2.2,-18.18 1.47,-6.74 4.16,-13.35 8.08,-19.84 3.92,-6.49 9.06,-12.37 15.43,-17.63 6.37,-5.27 14.57,-9.12 24.61,-11.57l0 -41.14 34.9 0z"/>
 </g>
</svg>
