<svg fill="none" height="28" viewBox="0 0 28 28" width="28" xmlns="http://www.w3.org/2000/svg" class="icon-fill shrink-0 font-size-28 text-green-80 me-2" aria-hidden="true"><g fill="currentColor"><path clip-rule="evenodd" d="m15.0393 2.44995c-.6707-.24772-1.4079-.24772-2.0786 0l-8.30715 3.06797c-.39274.14504-.65355.51939-.65355.93807v7.54411c0 3.6861 1.95965 6.6874 4.28911 8.8073 1.16017 1.0557 2.38789 1.8689 3.45309 2.4137 1.1081.5668 1.9145.779 2.2578.779s1.1497-.2122 2.2578-.779c1.0652-.5448 2.2929-1.358 3.4531-2.4137 2.3294-2.1199 4.2891-5.1212 4.2891-8.8073v-7.54411c0-.41868-.2608-.79303-.6536-.93807zm-2.7715-1.876139c1.1179-.412868 2.3465-.412868 3.4644 0l8.3071 3.067969c1.1783.43514 1.9607 1.55819 1.9607 2.81421v7.54411c0 4.4389-2.3618 7.9375-4.943 10.2865-1.2952 1.1786-2.6702 2.092-3.8885 2.7151-1.1754.6012-2.3332.9984-3.1685.9984s-1.9931-.3972-3.1685-.9984c-1.21831-.6231-2.59328-1.5365-3.88847-2.7151-2.58125-2.349-4.94303-5.8476-4.94303-10.2865v-7.54411c0-1.25602.78243-2.37907 1.96066-2.81421z" fill-rule="evenodd"></path><path d="m18.2906 11.75h-.2535v-1.1855c0-2.19278-1.7415-4.02451-3.9182-4.06361-.0595-.00107-.1783-.00107-.2378 0-2.1767.0391-3.91819 1.87083-3.91819 4.06361v1.1855h-.25354c-.39069 0-.70937.4028-.70937.9003v5.9463c0 .4969.31868.9035.7094.9035h8.5812c.3907 0 .7094-.4066.7094-.9035v-5.9463c0-.4974-.3187-.9003-.7094-.9003zm-3.4867 3.8674v1.7967c0 .2058-.1723.3799-.3784.3799h-.8509c-.2061 0-.3785-.1741-.3785-.3799v-1.7967c-.1999-.1966-.3162-.4684-.3162-.7691 0-.5698.4408-1.0594 1.0013-1.082.0594-.0024.1783-.0024.2377 0 .5605.0226 1.0013.5122 1.0013 1.082 0 .3007-.1164.5725-.3163.7691zm1.5623-3.8674h-4.7323v-1.1855c0-1.30621 1.0623-2.38623 2.3661-2.38623s2.3662 1.08002 2.3662 2.38623z"></path></g></svg>